<svg width="202" height="41" viewBox="0 0 202 41" fill="none" xmlns="http://www.w3.org/2000/svg">
<path d="M20.5437 1.20819C20.7874 1.06744 21.0878 1.06744 21.3316 1.20819L37.4478 10.5129C37.6916 10.6537 37.8418 10.9138 37.8418 11.1953V29.8047C37.8418 30.0862 37.6916 30.3463 37.4478 30.4871L21.3316 39.7918C21.0878 39.9326 20.7874 39.9326 20.5437 39.7918L4.42741 30.4871C4.18362 30.3463 4.03344 30.0862 4.03344 29.8047V11.1953C4.03344 10.9138 4.18362 10.6537 4.42741 10.5129L20.5437 1.20819Z" stroke="white" stroke-width="1.69868"/>
<rect x="12.4056" y="17.1413" width="4.01507" height="11.5819" fill="white"/>
<rect x="18.9688" y="14.7477" width="4.01507" height="11.5819" fill="white"/>
<rect x="25.5319" y="12.2768" width="4.01507" height="11.5819" fill="white"/>
<path d="M50.5599 28.5V10.7735H62.3524V13.3382H53.6526V18.2161H61.7992V20.7808H53.6526V25.9353H62.3524V28.5H50.5599ZM63.5513 28.5L68.7058 22.1386L63.8781 16.2046H67.5492L70.5161 20.0013L73.4831 16.2046H77.1541L72.3014 22.1637L77.481 28.5H73.7848L70.491 24.3512L67.2223 28.5H63.5513ZM78.9871 33.0259V16.2046H82.0547V18.1658C82.4067 17.4953 82.9347 16.9589 83.6387 16.5566C84.3595 16.1543 85.1725 15.9532 86.0777 15.9532C87.1505 15.9532 88.0892 16.213 88.8938 16.7326C89.7152 17.2523 90.3522 17.9898 90.8047 18.9453C91.2573 19.884 91.4836 21.0155 91.4836 22.3397C91.4836 23.6472 91.2573 24.7871 90.8047 25.7593C90.3522 26.7148 89.7236 27.4523 88.9189 27.972C88.1143 28.4916 87.1673 28.7514 86.0777 28.7514C85.206 28.7514 84.4182 28.5671 83.7142 28.1983C83.0269 27.8127 82.4989 27.3015 82.1301 26.6645V33.0259H78.9871ZM85.1976 26.3628C86.1364 26.3628 86.8907 26.0275 87.4606 25.357C88.0305 24.6697 88.3155 23.664 88.3155 22.3397C88.3155 20.9987 88.0305 20.0013 87.4606 19.3476C86.8907 18.6771 86.1364 18.3418 85.1976 18.3418C84.2589 18.3418 83.5046 18.6771 82.9347 19.3476C82.3648 20.0013 82.0798 20.9987 82.0798 22.3397C82.0798 23.664 82.3648 24.6697 82.9347 25.357C83.5046 26.0275 84.2589 26.3628 85.1976 26.3628ZM100.123 28.7514C98.732 28.7514 97.5335 28.4916 96.5277 27.972C95.522 27.4523 94.7425 26.7148 94.1894 25.7593C93.6529 24.8038 93.3847 23.6724 93.3847 22.3649C93.3847 21.0909 93.6446 19.9762 94.1642 19.0207C94.7006 18.0653 95.4298 17.3193 96.3517 16.7829C97.2904 16.2298 98.3549 15.9532 99.545 15.9532C101.288 15.9532 102.663 16.5063 103.669 17.6127C104.691 18.719 105.202 20.2276 105.202 22.1386V23.0689H96.402C96.6367 25.2648 97.8939 26.3628 100.174 26.3628C100.861 26.3628 101.548 26.2622 102.235 26.061C102.923 25.8431 103.551 25.5079 104.121 25.0553L105.001 27.1674C104.415 27.6535 103.677 28.039 102.789 28.324C101.9 28.609 101.012 28.7514 100.123 28.7514ZM99.6707 18.0904C98.7488 18.0904 98.0028 18.3754 97.4329 18.9453C96.863 19.5152 96.5194 20.2863 96.402 21.2585H102.587C102.52 20.236 102.235 19.4566 101.733 18.9202C101.246 18.367 100.559 18.0904 99.6707 18.0904ZM107.691 28.5V16.2046H110.759V18.367C111.362 16.9086 112.653 16.104 114.631 15.9532L115.587 15.8777L115.788 18.543L113.977 18.719C111.916 18.9202 110.885 19.9762 110.885 21.8871V28.5H107.691ZM123.882 28.7514C120.63 28.7514 119.004 27.1422 119.004 23.9238V18.5681H116.641V16.2046H119.004V12.5336H122.147V16.2046H125.869V18.5681H122.147V23.7478C122.147 24.5524 122.323 25.1559 122.675 25.5582C123.027 25.9605 123.597 26.1616 124.385 26.1616C124.62 26.1616 124.863 26.1365 125.114 26.0862C125.366 26.0191 125.625 25.9521 125.894 25.885L126.371 28.1983C126.07 28.3659 125.684 28.5 125.215 28.6006C124.762 28.7012 124.318 28.7514 123.882 28.7514ZM135.795 28.7012C134.169 28.7012 132.761 28.3324 131.571 27.5948C130.398 26.8573 129.484 25.8096 128.83 24.4518C128.193 23.0941 127.875 21.4848 127.875 19.6242C127.875 17.7635 128.193 16.1543 128.83 14.7966C129.467 13.4388 130.381 12.3995 131.571 11.6787C132.761 10.9411 134.169 10.5724 135.795 10.5724C137.438 10.5724 138.846 10.9411 140.019 11.6787C141.209 12.3995 142.123 13.4388 142.76 14.7966C143.414 16.1376 143.741 17.7384 143.741 19.599C143.741 21.4765 143.414 23.0941 142.76 24.4518C142.123 25.8096 141.209 26.8573 140.019 27.5948C138.829 28.3324 137.421 28.7012 135.795 28.7012ZM135.795 27.2931C137.79 27.2931 139.34 26.6226 140.447 25.2816C141.553 23.9406 142.106 22.0548 142.106 19.6242C142.106 17.1936 141.553 15.3162 140.447 13.9919C139.357 12.6509 137.807 11.9804 135.795 11.9804C133.8 11.9804 132.25 12.6509 131.143 13.9919C130.054 15.333 129.509 17.2104 129.509 19.6242C129.509 22.038 130.054 23.9238 131.143 25.2816C132.25 26.6226 133.8 27.2931 135.795 27.2931ZM147.356 33.0259V16.3052H148.89V18.5933C149.259 17.8222 149.812 17.2104 150.549 16.7578C151.304 16.3052 152.175 16.0789 153.164 16.0789C154.254 16.0789 155.201 16.3387 156.006 16.8584C156.827 17.378 157.456 18.1072 157.891 19.0459C158.344 19.9846 158.57 21.0993 158.57 22.39C158.57 23.6807 158.344 24.8038 157.891 25.7593C157.456 26.698 156.827 27.4272 156.006 27.9468C155.201 28.4497 154.254 28.7012 153.164 28.7012C152.175 28.7012 151.304 28.4832 150.549 28.0474C149.812 27.6116 149.259 27.0081 148.89 26.237V33.0259H147.356ZM152.938 27.4188C154.178 27.4188 155.167 26.983 155.905 26.1113C156.643 25.2229 157.011 23.9825 157.011 22.39C157.011 20.7976 156.643 19.5655 155.905 18.6939C155.167 17.8222 154.178 17.3864 152.938 17.3864C151.698 17.3864 150.709 17.8222 149.971 18.6939C149.233 19.5655 148.865 20.7976 148.865 22.39C148.865 23.9825 149.233 25.2229 149.971 26.1113C150.709 26.983 151.698 27.4188 152.938 27.4188ZM166.297 28.7012C164.939 28.7012 163.917 28.3324 163.23 27.5948C162.559 26.8573 162.224 25.8012 162.224 24.4267V17.5372H159.81V16.3052H162.224V12.5336H163.758V16.3052H167.705V17.5372H163.758V24.2255C163.758 25.2481 163.967 26.0275 164.386 26.5639C164.805 27.1003 165.501 27.3685 166.473 27.3685C166.758 27.3685 167.035 27.335 167.303 27.2679C167.571 27.2009 167.806 27.1255 168.007 27.0417L168.309 28.2486C168.124 28.3659 167.831 28.4665 167.429 28.5503C167.026 28.6509 166.649 28.7012 166.297 28.7012ZM169.867 13.0868V11.1507H171.929V13.0868H169.867ZM170.118 28.5V16.3052H171.652V28.5H170.118ZM180.545 28.7012C179.405 28.7012 178.416 28.4497 177.578 27.9468C176.74 27.4272 176.086 26.698 175.617 25.7593C175.164 24.8038 174.938 23.6807 174.938 22.39C174.938 21.1161 175.164 20.0097 175.617 19.071C176.086 18.1156 176.74 17.378 177.578 16.8584C178.416 16.3387 179.405 16.0789 180.545 16.0789C181.701 16.0789 182.699 16.3387 183.537 16.8584C184.375 17.378 185.02 18.1156 185.473 19.071C185.942 20.0097 186.177 21.1161 186.177 22.39C186.177 23.6807 185.942 24.8038 185.473 25.7593C185.02 26.698 184.375 27.4272 183.537 27.9468C182.699 28.4497 181.701 28.7012 180.545 28.7012ZM180.545 27.4188C181.785 27.4188 182.774 26.983 183.512 26.1113C184.249 25.2229 184.618 23.9825 184.618 22.39C184.618 20.7976 184.249 19.5655 183.512 18.6939C182.774 17.8222 181.785 17.3864 180.545 17.3864C179.304 17.3864 178.315 17.8222 177.578 18.6939C176.857 19.5655 176.497 20.7976 176.497 22.39C176.497 23.9825 176.857 25.2229 177.578 26.1113C178.315 26.983 179.304 27.4188 180.545 27.4188ZM189.443 28.5V16.3052H190.951V18.4927C191.354 17.6881 191.932 17.0847 192.686 16.6823C193.441 16.28 194.279 16.0789 195.201 16.0789C198.101 16.0789 199.551 17.6546 199.551 20.806V28.5H198.017V20.9317C198.017 19.7248 197.774 18.8363 197.288 18.2664C196.801 17.6965 196.03 17.4115 194.974 17.4115C193.767 17.4115 192.795 17.7887 192.058 18.543C191.337 19.2806 190.976 20.2779 190.976 21.5351V28.5H189.443Z" fill="white"/>
</svg>
